<svg xmlns="http://www.w3.org/2000/svg" xmlns:xlink="http://www.w3.org/1999/xlink" xmlns:svgjs="http://svgjs.dev/svgjs" version="1.1" viewBox="175 400 1300 800"><rect width="80%" height="80%" preserveAspectRatio="xMinYMin meet" fill="#000000"/><g transform="matrix(0.6666666666666666,0,0,0.6666666666666666,249.39393939393938,513.8386395958584)"><svg xmlns="http://www.w3.org/2000/svg" xmlns:xlink="http://www.w3.org/1999/xlink" viewBox="0 0 396 187" data-background-color="#000000" preserveAspectRatio="xMidYMid meet" height="900" width="1500"><g id="tight-bounds" transform="matrix(1,0,0,1,0.2400000000000091,0.06392880418322022)"><svg viewBox="0 0 395.52 186.87214239163356" height="186.87214239163356" width="395.52"><g><svg viewBox="0 0 425.4219970004435 200.99999999999997" height="186.87214239163356" width="395.52"><g/><g transform="matrix(1,0,0,1,194.93419212239473,0.4999999999999858)"><svg viewBox="0 0 230.48780487804882 200" height="200" width="230.48780487804882"><g id="textblocktransform"><svg viewBox="0 0 230.48780487804882 200" height="200" width="230.48780487804882" id="textblock"><g><svg viewBox="0 0 230.48780487804882 200" height="100" width="130.48780487804882"><g transform="matrix(1,0,0,1,0,0)"><svg width="230.48780487804882" viewBox="0.24999999999999933 -37.35 105.70000000000002 91.55000000000001" height="200" data-palette-color="url(#4f0b5031-22aa-40bc-9042-57e20673cfe7)"><svg/><svg/><g class="wordmark-text-0" data-fill-palette-color="primary" id="text-0"/></svg></g></svg></g></svg></g></svg></g><g transform="matrix(1,0,0,1,0,63.12140129337314)"><svg viewBox="0 0 142.44146341463417 74.75719741325369" height="74.75719741325369" width="142.44146341463417"><g><svg xmlns="http://www.w3.org/2000/svg" xmlns:xlink="http://www.w3.org/1999/xlink" version="1.1" x="0" y="0" viewBox="5 26.382 90.001 47.235" enable-background="new 0 0 100 100" xml:space="preserve" height="74.75719741325369" width="142.44146341463417" class="icon-icon-0" data-fill-palette-color="accent" id="icon-0"/></g></svg></g></svg></g><defs/><mask id="942237f6-1823-42dc-bf44-8fb8f9ff9368"><g id="SvgjsG4327"><svg viewBox="0 0 395.52 186.87214239163356" height="186.87214239163356" width="395.52"><g><svg viewBox="0 0 425.4219970004435 200.99999999999997" height="186.87214239163356" width="395.52"><g><rect width="8.418229372949002" height="200.99999999999997" x="164.47871308203995" y="0" fill="white" opacity="1" stroke-width="0" stroke="transparent" fill-opacity="1" class="rect-yte-0" rx="1%" id="SvgjsRect4326" data-palette-color="url(#4f0b5031-22aa-40bc-9042-57e20673cfe7)"/></g><g transform="matrix(1,0,0,1,194.93419212239473,0.4999999999999858)"><svg viewBox="0 0 230.48780487804882 200" height="200" width="230.48780487804882"><g id="SvgjsG4325"><svg viewBox="0 0 230.48780487804882 200" height="200" width="230.48780487804882" id="SvgjsSvg4324"><g><svg viewBox="0 0 230.48780487804882 200" height="200" width="230.48780487804882"><g transform="matrix(1,0,0,1,0,0)"><svg width="230.48780487804882" viewBox="0.24999999999999933 -37.35 105.70000000000002 91.55000000000001" height="200" data-palette-color="url(#4f0b5031-22aa-40bc-9042-57e20673cfe7)"><svg/><svg/><g class="wordmark-text-0" data-fill-palette-color="primary" id="SvgjsG4323"><path d="M28.9-7.8v0l1.9 2.5c-2.1 1.933-4.133 3.343-6.1 4.23-1.967 0.88-4.233 1.32-6.8 1.32v0c-3.167 0-5.95-0.727-8.35-2.18-2.4-1.447-4.257-3.447-5.57-6-1.32-2.547-1.98-5.487-1.98-8.82v0c0-2.1 0.333-4.15 1-6.15 0.667-2 1.667-3.8 3-5.4 1.333-1.6 3.027-2.877 5.08-3.83 2.047-0.947 4.437-1.42 7.17-1.42v0c2.1 0 4.183 0.223 6.25 0.67 2.067 0.453 4.017 1.113 5.85 1.98v0c-0.333 1.433-0.657 2.907-0.97 4.42-0.32 1.52-0.613 3.013-0.88 4.48v0h-2.9l-1-5.8c-1.3-0.967-2.823-1.643-4.57-2.03-1.753-0.38-3.563-0.57-5.43-0.57v0c-2.033 1.1-3.467 2.767-4.3 5-0.833 2.233-1.25 4.733-1.25 7.5v0c0 2.967 0.45 5.523 1.35 7.67 0.9 2.153 2.133 3.803 3.7 4.95 1.567 1.153 3.333 1.73 5.3 1.73v0c1.833 0 3.443-0.35 4.83-1.05 1.38-0.7 2.937-1.767 4.67-3.2zM45.4-21.7v0c2.467 0 4.527 0.517 6.18 1.55 1.647 1.033 2.88 2.383 3.7 4.05 0.813 1.667 1.22 3.467 1.22 5.4v0c0 1.967-0.417 3.807-1.25 5.52-0.833 1.72-2.083 3.097-3.75 4.13-1.667 1.033-3.75 1.55-6.25 1.55v0c-2.5 0-4.6-0.523-6.3-1.57-1.7-1.053-2.983-2.447-3.85-4.18-0.867-1.733-1.3-3.583-1.3-5.55v0c0-1.933 0.427-3.727 1.28-5.38 0.847-1.647 2.13-2.98 3.85-4 1.713-1.013 3.87-1.52 6.47-1.52zM40.8-11.85v0c0 1.667 0.193 3.25 0.58 4.75 0.38 1.5 0.953 2.717 1.72 3.65 0.767 0.933 1.683 1.4 2.75 1.4v0c1.267 0 2.21-0.693 2.83-2.08 0.613-1.38 0.92-3.103 0.92-5.17v0c0-1.667-0.19-3.243-0.57-4.73-0.387-1.48-0.953-2.697-1.7-3.65-0.753-0.947-1.68-1.42-2.78-1.42v0c-1.267 0-2.207 0.69-2.82 2.07-0.62 1.387-0.93 3.113-0.93 5.18zM81.05-37.35v0c0 2.133-0.007 4.467-0.02 7-0.02 2.533-0.03 5.417-0.03 8.65v0c0 2.7 0 5.307 0 7.82 0 2.52 0.01 4.737 0.03 6.65 0.013 1.92 0.037 3.363 0.07 4.33v0l3.75 1.05-0.75 1.85c-0.867-0.067-1.717-0.1-2.55-0.1-0.833 0-1.85 0-3.05 0v0c-0.9 0-1.65 0.007-2.25 0.02-0.6 0.02-1.133 0.047-1.6 0.08v0c-0.033-0.667-0.09-1.293-0.17-1.88-0.087-0.58-0.163-1.187-0.23-1.82v0c0.033-1.5 0.06-3 0.08-4.5 0.013-1.5 0.02-2.95 0.02-4.35v0c0-0.967 0-1.917 0-2.85 0-0.933-0.017-1.9-0.05-2.9v0c0-1.533-0.023-3.2-0.07-5-0.053-1.8-0.12-3.6-0.2-5.4-0.087-1.8-0.197-3.433-0.33-4.9v0l-4.05-0.65-0.45-2.15c0.567 0 1.35-0.033 2.35-0.1 1-0.067 2.093-0.143 3.28-0.23 1.18-0.08 2.32-0.177 3.42-0.29 1.1-0.12 2.033-0.23 2.8-0.33zM68-21.8v0c1.833 0 3.45 0.483 4.85 1.45 1.4 0.967 2.417 2.333 3.05 4.1v0l-1.55 4.25c0-1.167-0.24-2.227-0.72-3.18-0.487-0.947-1.08-1.73-1.78-2.35-0.7-0.613-1.367-0.987-2-1.12v0c-1.333 0.4-2.373 1.317-3.12 2.75-0.753 1.433-1.13 3.083-1.13 4.95v0c0 2.533 0.483 4.417 1.45 5.65 0.967 1.233 2.067 1.85 3.3 1.85v0c1.167 0 2.277-0.633 3.33-1.9 1.047-1.267 1.77-2.933 2.17-5v0l1.55 2.25c-0.9 2.433-2.123 4.45-3.67 6.05-1.553 1.6-3.463 2.4-5.73 2.4v0c-1.5 0-2.957-0.427-4.37-1.28-1.42-0.847-2.58-2.113-3.48-3.8-0.9-1.68-1.35-3.787-1.35-6.32v0c0-2.367 0.467-4.35 1.4-5.95 0.933-1.6 2.11-2.8 3.53-3.6 1.413-0.8 2.837-1.2 4.27-1.2zM96.5-21.85v0c1.667 0 3.21 0.367 4.63 1.1 1.413 0.733 2.547 1.84 3.4 3.32 0.847 1.487 1.27 3.347 1.27 5.58v0c-0.733 0.133-1.7 0.25-2.9 0.35-1.2 0.1-2.517 0.173-3.95 0.22-1.433 0.053-2.867 0.08-4.3 0.08v0c-1.067 0-1.983-0.017-2.75-0.05-0.767-0.033-1.283-0.067-1.55-0.1v0-2.4c0.367 0 0.927 0 1.68 0 0.747 0 1.587-0.017 2.52-0.05 0.933-0.033 1.843-0.083 2.73-0.15 0.88-0.067 1.62-0.15 2.22-0.25v0c-0.033-0.7-0.223-1.407-0.57-2.12-0.353-0.72-0.88-1.33-1.58-1.83-0.7-0.5-1.6-0.75-2.7-0.75v0c-0.667 0.633-1.2 1.507-1.6 2.62-0.4 1.12-0.6 2.413-0.6 3.88v0c0 3 0.627 5.207 1.88 6.62 1.247 1.42 2.787 2.13 4.62 2.13v0c1.867 0 3.833-0.667 5.9-2v0l1.1 2.3c-1.433 1.3-2.967 2.233-4.6 2.8-1.633 0.567-3.25 0.85-4.85 0.85v0c-1.867 0-3.607-0.41-5.22-1.23-1.62-0.813-2.92-2.037-3.9-3.67-0.987-1.633-1.48-3.667-1.48-6.1v0c0-2.467 0.51-4.527 1.53-6.18 1.013-1.647 2.33-2.887 3.95-3.72 1.613-0.833 3.32-1.25 5.12-1.25z" fill="white" fill-rule="nonzero" stroke="none" stroke-width="1" stroke-linecap="butt" stroke-linejoin="miter" stroke-miterlimit="10" stroke-dasharray="" stroke-dashoffset="0" font-family="none" font-weight="none" font-size="none" text-anchor="none" style="mix-blend-mode: normal" opacity="1"/><path transform="translate(0,45.1)" d="M13.8-8.85v0c-0.033 1.567-0.19 3.05-0.47 4.45-0.287 1.4-0.83 2.79-1.63 4.17-0.8 1.387-1.973 2.84-3.52 4.36-1.553 1.513-3.63 3.17-6.23 4.97v0l-1.7-2.15c1.567-1.533 2.793-3.023 3.68-4.47 0.88-1.453 1.513-3.073 1.9-4.86 0.38-1.78 0.603-3.903 0.67-6.37v0c0.167-4.567 0.183-8.683 0.05-12.35-0.133-3.667-0.233-6.55-0.3-8.65v0l-4.8-1.3 0.5-1.95c0.767 0.033 1.527 0.067 2.28 0.1 0.747 0.033 1.587 0.057 2.52 0.07 0.933 0.02 2.083 0.03 3.45 0.03v0c1.967 0 3.493-0.027 4.58-0.08 1.08-0.047 2.053-0.087 2.92-0.12v0l0.6 1.95-4.45 1.3c0 1.833 0.01 3.757 0.03 5.77 0.013 2.02 0.02 4.247 0.02 6.68 0 2.433-0.033 5.25-0.1 8.45zM33.5-21.8v0c1.767 0 3.3 0.54 4.6 1.62 1.3 1.087 1.95 2.73 1.95 4.93v0c0 1.433-0.023 2.633-0.07 3.6-0.053 0.967-0.103 1.823-0.15 2.57-0.053 0.753-0.08 1.53-0.08 2.33v0c0 0.933 0.057 1.59 0.17 1.97 0.12 0.387 0.447 0.58 0.98 0.58v0c0.467 0 1.167-0.217 2.1-0.65v0l0.9 2.2c-1.2 0.833-2.35 1.523-3.45 2.07-1.1 0.553-2.267 0.83-3.5 0.83v0c-1.033 0-1.933-0.41-2.7-1.23-0.767-0.813-1.15-2.103-1.15-3.87v0c0-1.633 0.077-3.243 0.23-4.83 0.147-1.58 0.22-2.987 0.22-4.22v0c0-1.033-0.15-1.867-0.45-2.5-0.3-0.633-0.8-1.067-1.5-1.3v0c-1.533 0.067-3 0.35-4.4 0.85-1.4 0.5-2.833 1.133-4.3 1.9v0l-1.3-2.15c1.9-1.4 3.827-2.533 5.78-3.4 1.947-0.867 3.987-1.3 6.12-1.3zM37.05-13.95v0l-3 4.15c-0.733 0.167-1.383 0.333-1.95 0.5-0.567 0.167-1.083 0.3-1.55 0.4v0c-1.133 0.233-1.917 0.523-2.35 0.87-0.433 0.353-0.65 0.963-0.65 1.83v0c0 0.7 0.183 1.25 0.55 1.65 0.367 0.4 0.867 0.6 1.5 0.6v0c0.767 0 1.743-0.36 2.93-1.08 1.18-0.713 2.187-1.62 3.02-2.72v0l0.95 2.05c-0.533 0.667-1.29 1.483-2.27 2.45-0.987 0.967-2.163 1.823-3.53 2.57-1.367 0.753-2.867 1.13-4.5 1.13v0c-0.833 0-1.64-0.227-2.42-0.68-0.787-0.447-1.44-1.12-1.96-2.02-0.513-0.9-0.77-2.017-0.77-3.35v0c0-1.4 0.427-2.493 1.28-3.28 0.847-0.78 2.003-1.387 3.47-1.82 1.467-0.433 3.083-0.8 4.85-1.1v0c1.2-0.2 2.317-0.46 3.35-0.78 1.033-0.313 2.05-0.77 3.05-1.37zM64.4-21.75v0c2.033 0 3.66 0.717 4.88 2.15 1.213 1.433 1.887 3.333 2.02 5.7v0c0.067 0.6 0.083 1.523 0.05 2.77-0.033 1.253-0.057 2.62-0.07 4.1-0.02 1.487-0.03 2.863-0.03 4.13v0l3.7 1.05-0.7 1.85c-0.9-0.067-1.91-0.11-3.03-0.13-1.113-0.013-2.27-0.02-3.47-0.02v0c-1.133 0-2.217 0.017-3.25 0.05-1.033 0.033-1.983 0.067-2.85 0.1v0l-0.7-1.85 3.7-1.05c0.033-1.133 0.067-2.077 0.1-2.83 0.033-0.747 0.06-1.497 0.08-2.25 0.013-0.747 0.003-1.653-0.03-2.72v0c-0.033-2.433-0.44-4.093-1.22-4.98-0.787-0.88-1.963-1.32-3.53-1.32v0c-1.467 0.967-2.483 2.157-3.05 3.57-0.567 1.42-0.833 2.73-0.8 3.93v0l-1.85-2.1c0.233-1.933 0.8-3.66 1.7-5.18 0.9-1.513 2.077-2.72 3.53-3.62 1.447-0.9 3.053-1.35 4.82-1.35zM56.2-21.9v0c0 1.1 0 2.007 0 2.72 0 0.72 0 1.43 0 2.13 0 0.7-0.017 1.617-0.05 2.75v0l0.1 11.4 3.65 1.05-0.65 1.85c-1.1-0.067-2.183-0.11-3.25-0.13-1.067-0.013-2.183-0.02-3.35-0.02v0c-1.167 0-2.21 0.017-3.13 0.05-0.913 0.033-1.87 0.067-2.87 0.1v0l-0.8-1.85 3.75-1.05c0.033-1.3 0.067-2.36 0.1-3.18 0.033-0.813 0.057-1.553 0.07-2.22 0.02-0.667 0.03-1.417 0.03-2.25v0c0-1-0.01-1.86-0.03-2.58-0.013-0.713-0.053-1.463-0.12-2.25-0.067-0.78-0.15-1.753-0.25-2.92v0l-3.7-0.6-0.6-2.1c1.667-0.067 3.39-0.16 5.17-0.28 1.787-0.113 3.763-0.32 5.93-0.62zM79.55-21.75v0c2.067 0 3.707 0.717 4.92 2.15 1.22 1.433 1.897 3.333 2.03 5.7v0c0.033 0.6 0.033 1.523 0 2.77-0.033 1.253-0.057 2.62-0.07 4.1-0.02 1.487-0.013 2.863 0.02 4.13v0l3.7 1.05-0.75 1.85c-0.9-0.067-1.907-0.11-3.02-0.13-1.12-0.013-2.28-0.02-3.48-0.02v0c-1.133 0-2.207 0.017-3.22 0.05-1.02 0.033-1.963 0.067-2.83 0.1v0l-0.7-1.85 3.65-1.05c0.067-1.133 0.11-2.077 0.13-2.83 0.013-0.747 0.027-1.497 0.04-2.25 0.02-0.747 0.03-1.653 0.03-2.72v0c-0.033-2.433-0.44-4.093-1.22-4.98-0.787-0.88-1.98-1.32-3.58-1.32v0c-1.433 0.967-2.443 2.157-3.03 3.57-0.58 1.42-0.87 2.73-0.87 3.93v0l-1.8-2.1c0.233-1.933 0.807-3.66 1.72-5.18 0.92-1.513 2.097-2.72 3.53-3.62 1.433-0.9 3.033-1.35 4.8-1.35z" fill="white" fill-rule="nonzero" stroke="none" stroke-width="1" stroke-linecap="butt" stroke-linejoin="miter" stroke-miterlimit="10" stroke-dasharray="" stroke-dashoffset="0" font-family="none" font-weight="none" font-size="none" text-anchor="none" style="mix-blend-mode: normal" opacity="1"/></g></svg></g></svg></g></svg></g></svg></g><g transform="matrix(1,0,0,1,0,63.12140129337314)"><svg viewBox="0 0 142.44146341463417 74.75719741325369" height="74.75719741325369" width="142.44146341463417"><g><svg xmlns="http://www.w3.org/2000/svg" xmlns:xlink="http://www.w3.org/1999/xlink" version="1.1" x="0" y="0" viewBox="5 26.382 90.001 47.235" enable-background="new 0 0 100 100" xml:space="preserve" height="74.75719741325369" width="142.44146341463417" class="icon-icon-0" data-fill-palette-color="accent" id="SvgjsSvg4322"><g fill="black"><path fill="black" d="M49.999 28.675A0.682 0.682 0 1 1 49.999 27.314 0.681 0.681 0 0 0 49.999 28.675"/><path fill="black" d="M54.303 70.682H45.696A0.68 0.68 0 0 0 45.016 71.362V71.363A0.68 0.68 0 0 1 45.696 70.684H54.303C54.678 70.684 54.98 70.989 54.983 71.363V71.362A0.68 0.68 0 0 0 54.303 70.682"/><path d="M86.627 69.107C86.736 68.881 86.803 68.629 86.803 68.361V28.107C86.803 27.154 86.032 26.382 85.078 26.382H14.919C13.966 26.382 13.194 27.153 13.194 28.107V68.361C13.194 68.632 13.259 68.882 13.37 69.107H5V71.892C5 72.841 5.773 73.617 6.727 73.617H93.273C94.226 73.617 95.001 72.844 95.001 71.892V69.107zM49.999 27.314A0.68 0.68 0 1 1 49.999 28.672 0.68 0.68 0 0 1 50 27.314M16.143 29.709H83.855V66.277H16.143zM54.982 71.363A0.68 0.68 0 0 1 54.302 72.046H45.695A0.68 0.68 0 0 1 45.015 71.363V71.361A0.68 0.68 0 0 1 45.695 70.681H54.302A0.68 0.68 0 0 1 54.982 71.361z" fill="black"/><polygon points="31.736,50.861 44.194,56.648 44.194,53.898 34.772,49.771 34.772,49.719 44.194,45.592 44.194,42.84    31.736,48.628  " fill="black"/><polygon points="46.119,57.688 48.74,57.688 54.295,38.87 51.673,38.87  " fill="black"/><polygon points="55.801,45.592 65.432,49.719 65.432,49.771 55.801,53.898 55.801,56.648 68.26,50.939 68.26,48.551 55.801,42.84     " fill="black"/></g></svg></g></svg></g></svg></g><defs><mask/></defs></svg><rect width="395.52" height="186.87214239163356" fill="black" stroke="none" visibility="hidden"/></g></mask><linearGradient x1="0" x2="1" y1="0.548" y2="0.55" id="4f0b5031-22aa-40bc-9042-57e20673cfe7"><stop stop-color="#ff6cab" offset="0"/><stop stop-color="#7366ff" offset="1"/></linearGradient><rect width="395.52" height="186.87214239163356" fill="url(#4f0b5031-22aa-40bc-9042-57e20673cfe7)" mask="url(#942237f6-1823-42dc-bf44-8fb8f9ff9368)" data-fill-palette-color="primary"/><mask id="5fac5313-747b-49bf-b6af-c52b54f8b036"><g id="SvgjsG4350"><svg viewBox="0 0 395.52 186.87214239163356" height="186.87214239163356" width="395.52"><g><svg viewBox="0 0 425.4219970004435 200.99999999999997" height="186.87214239163356" width="395.52"><g/><g transform="matrix(1,0,0,1,194.93419212239473,0.4999999999999858)"><svg viewBox="0 0 230.48780487804882 200" height="200" width="230.48780487804882"><g id="SvgjsG4349"><svg viewBox="0 0 230.48780487804882 200" height="200" width="230.48780487804882" id="SvgjsSvg4348"><g><svg viewBox="0 0 230.48780487804882 200" height="200" width="230.48780487804882"><g transform="matrix(1,0,0,1,0,0)"><svg width="230.48780487804882" viewBox="0.24999999999999933 -37.35 105.70000000000002 91.55000000000001" height="200" data-palette-color="url(#4f0b5031-22aa-40bc-9042-57e20673cfe7)"><svg/><svg/><g class="wordmark-text-0" data-fill-palette-color="primary" id="SvgjsG4347"/></svg></g></svg></g></svg></g></svg></g><g transform="matrix(1,0,0,1,0,63.12140129337314)"><svg viewBox="0 0 142.44146341463417 74.75719741325369" height="74.75719741325369" width="142.44146341463417"><g><svg xmlns="http://www.w3.org/2000/svg" xmlns:xlink="http://www.w3.org/1999/xlink" version="1.1" x="0" y="0" viewBox="5 26.382 90.001 47.235" enable-background="new 0 0 100 100" xml:space="preserve" height="74.75719741325369" width="142.44146341463417" class="icon-icon-0" data-fill-palette-color="accent" id="SvgjsSvg4346"><g fill="white"><path fill="black" d="M49.999 28.675A0.682 0.682 0 1 1 49.999 27.314 0.681 0.681 0 0 0 49.999 28.675"/><path fill="black" d="M54.303 70.682H45.696A0.68 0.68 0 0 0 45.016 71.362V71.363A0.68 0.68 0 0 1 45.696 70.684H54.303C54.678 70.684 54.98 70.989 54.983 71.363V71.362A0.68 0.68 0 0 0 54.303 70.682"/><path d="M86.627 69.107C86.736 68.881 86.803 68.629 86.803 68.361V28.107C86.803 27.154 86.032 26.382 85.078 26.382H14.919C13.966 26.382 13.194 27.153 13.194 28.107V68.361C13.194 68.632 13.259 68.882 13.37 69.107H5V71.892C5 72.841 5.773 73.617 6.727 73.617H93.273C94.226 73.617 95.001 72.844 95.001 71.892V69.107zM49.999 27.314A0.68 0.68 0 1 1 49.999 28.672 0.68 0.68 0 0 1 50 27.314M16.143 29.709H83.855V66.277H16.143zM54.982 71.363A0.68 0.68 0 0 1 54.302 72.046H45.695A0.68 0.68 0 0 1 45.015 71.363V71.361A0.68 0.68 0 0 1 45.695 70.681H54.302A0.68 0.68 0 0 1 54.982 71.361z" fill="white"/><polygon points="31.736,50.861 44.194,56.648 44.194,53.898 34.772,49.771 34.772,49.719 44.194,45.592 44.194,42.84    31.736,48.628  " fill="white"/><polygon points="46.119,57.688 48.74,57.688 54.295,38.87 51.673,38.87  " fill="white"/><polygon points="55.801,45.592 65.432,49.719 65.432,49.771 55.801,53.898 55.801,56.648 68.26,50.939 68.26,48.551 55.801,42.84     " fill="white"/></g></svg></g></svg></g></svg></g><defs><mask/></defs><mask><g id="SvgjsG4345"><svg viewBox="0 0 395.52 186.87214239163356" height="186.87214239163356" width="395.52"><g><svg viewBox="0 0 425.4219970004435 200.99999999999997" height="186.87214239163356" width="395.52"><g><rect width="8.418229372949002" height="200.99999999999997" x="164.47871308203995" y="0" fill="black" opacity="1" stroke-width="0" stroke="transparent" fill-opacity="1" class="rect-yte-0" rx="1%" id="SvgjsRect4344" data-palette-color="url(#4f0b5031-22aa-40bc-9042-57e20673cfe7)"/></g><g transform="matrix(1,0,0,1,194.93419212239473,0.4999999999999858)"><svg viewBox="0 0 230.48780487804882 200" height="200" width="230.48780487804882"><g id="SvgjsG4343"><svg viewBox="0 0 230.48780487804882 200" height="200" width="230.48780487804882" id="SvgjsSvg4342"><g><svg viewBox="0 0 230.48780487804882 200" height="200" width="230.48780487804882"><g transform="matrix(1,0,0,1,0,0)"><svg width="230.48780487804882" viewBox="0.24999999999999933 -37.35 105.70000000000002 91.55000000000001" height="200" data-palette-color="url(#4f0b5031-22aa-40bc-9042-57e20673cfe7)"><svg/><svg/><g class="wordmark-text-0" data-fill-palette-color="primary" id="SvgjsG4341"><path d="M28.9-7.8v0l1.9 2.5c-2.1 1.933-4.133 3.343-6.1 4.23-1.967 0.88-4.233 1.32-6.8 1.32v0c-3.167 0-5.95-0.727-8.35-2.18-2.4-1.447-4.257-3.447-5.57-6-1.32-2.547-1.98-5.487-1.98-8.82v0c0-2.1 0.333-4.15 1-6.15 0.667-2 1.667-3.8 3-5.4 1.333-1.6 3.027-2.877 5.08-3.83 2.047-0.947 4.437-1.42 7.17-1.42v0c2.1 0 4.183 0.223 6.25 0.67 2.067 0.453 4.017 1.113 5.85 1.98v0c-0.333 1.433-0.657 2.907-0.97 4.42-0.32 1.52-0.613 3.013-0.88 4.48v0h-2.9l-1-5.8c-1.3-0.967-2.823-1.643-4.57-2.03-1.753-0.38-3.563-0.57-5.43-0.57v0c-2.033 1.1-3.467 2.767-4.3 5-0.833 2.233-1.25 4.733-1.25 7.5v0c0 2.967 0.45 5.523 1.35 7.67 0.9 2.153 2.133 3.803 3.7 4.95 1.567 1.153 3.333 1.73 5.3 1.73v0c1.833 0 3.443-0.35 4.83-1.05 1.38-0.7 2.937-1.767 4.67-3.2zM45.4-21.7v0c2.467 0 4.527 0.517 6.18 1.55 1.647 1.033 2.88 2.383 3.7 4.05 0.813 1.667 1.22 3.467 1.22 5.4v0c0 1.967-0.417 3.807-1.25 5.52-0.833 1.72-2.083 3.097-3.75 4.13-1.667 1.033-3.75 1.55-6.25 1.55v0c-2.5 0-4.6-0.523-6.3-1.57-1.7-1.053-2.983-2.447-3.85-4.18-0.867-1.733-1.3-3.583-1.3-5.55v0c0-1.933 0.427-3.727 1.28-5.38 0.847-1.647 2.13-2.98 3.85-4 1.713-1.013 3.87-1.52 6.47-1.52zM40.8-11.85v0c0 1.667 0.193 3.25 0.58 4.75 0.38 1.5 0.953 2.717 1.72 3.65 0.767 0.933 1.683 1.4 2.75 1.4v0c1.267 0 2.21-0.693 2.83-2.08 0.613-1.38 0.92-3.103 0.92-5.17v0c0-1.667-0.19-3.243-0.57-4.73-0.387-1.48-0.953-2.697-1.7-3.65-0.753-0.947-1.68-1.42-2.78-1.42v0c-1.267 0-2.207 0.69-2.82 2.07-0.62 1.387-0.93 3.113-0.93 5.18zM81.05-37.35v0c0 2.133-0.007 4.467-0.02 7-0.02 2.533-0.03 5.417-0.03 8.65v0c0 2.7 0 5.307 0 7.82 0 2.52 0.01 4.737 0.03 6.65 0.013 1.92 0.037 3.363 0.07 4.33v0l3.75 1.05-0.75 1.85c-0.867-0.067-1.717-0.1-2.55-0.1-0.833 0-1.85 0-3.05 0v0c-0.9 0-1.65 0.007-2.25 0.02-0.6 0.02-1.133 0.047-1.6 0.08v0c-0.033-0.667-0.09-1.293-0.17-1.88-0.087-0.58-0.163-1.187-0.23-1.82v0c0.033-1.5 0.06-3 0.08-4.5 0.013-1.5 0.02-2.95 0.02-4.35v0c0-0.967 0-1.917 0-2.85 0-0.933-0.017-1.9-0.05-2.9v0c0-1.533-0.023-3.2-0.07-5-0.053-1.8-0.12-3.6-0.2-5.4-0.087-1.8-0.197-3.433-0.33-4.9v0l-4.05-0.65-0.45-2.15c0.567 0 1.35-0.033 2.35-0.1 1-0.067 2.093-0.143 3.28-0.23 1.18-0.08 2.32-0.177 3.42-0.29 1.1-0.12 2.033-0.23 2.8-0.33zM68-21.8v0c1.833 0 3.45 0.483 4.85 1.45 1.4 0.967 2.417 2.333 3.05 4.1v0l-1.55 4.25c0-1.167-0.24-2.227-0.72-3.18-0.487-0.947-1.08-1.73-1.78-2.35-0.7-0.613-1.367-0.987-2-1.12v0c-1.333 0.4-2.373 1.317-3.12 2.75-0.753 1.433-1.13 3.083-1.13 4.95v0c0 2.533 0.483 4.417 1.45 5.65 0.967 1.233 2.067 1.85 3.3 1.85v0c1.167 0 2.277-0.633 3.33-1.9 1.047-1.267 1.77-2.933 2.17-5v0l1.55 2.25c-0.9 2.433-2.123 4.45-3.67 6.05-1.553 1.6-3.463 2.4-5.73 2.4v0c-1.5 0-2.957-0.427-4.37-1.28-1.42-0.847-2.58-2.113-3.48-3.8-0.9-1.68-1.35-3.787-1.35-6.32v0c0-2.367 0.467-4.35 1.4-5.95 0.933-1.6 2.11-2.8 3.53-3.6 1.413-0.8 2.837-1.2 4.27-1.2zM96.5-21.85v0c1.667 0 3.21 0.367 4.63 1.1 1.413 0.733 2.547 1.84 3.4 3.32 0.847 1.487 1.27 3.347 1.27 5.58v0c-0.733 0.133-1.7 0.25-2.9 0.35-1.2 0.1-2.517 0.173-3.95 0.22-1.433 0.053-2.867 0.08-4.3 0.08v0c-1.067 0-1.983-0.017-2.75-0.05-0.767-0.033-1.283-0.067-1.55-0.1v0-2.4c0.367 0 0.927 0 1.68 0 0.747 0 1.587-0.017 2.52-0.05 0.933-0.033 1.843-0.083 2.73-0.15 0.88-0.067 1.62-0.15 2.22-0.25v0c-0.033-0.7-0.223-1.407-0.57-2.12-0.353-0.72-0.88-1.33-1.58-1.83-0.7-0.5-1.6-0.75-2.7-0.75v0c-0.667 0.633-1.2 1.507-1.6 2.62-0.4 1.12-0.6 2.413-0.6 3.88v0c0 3 0.627 5.207 1.88 6.62 1.247 1.42 2.787 2.13 4.62 2.13v0c1.867 0 3.833-0.667 5.9-2v0l1.1 2.3c-1.433 1.3-2.967 2.233-4.6 2.8-1.633 0.567-3.25 0.85-4.85 0.85v0c-1.867 0-3.607-0.41-5.22-1.23-1.62-0.813-2.92-2.037-3.9-3.67-0.987-1.633-1.48-3.667-1.48-6.1v0c0-2.467 0.51-4.527 1.53-6.18 1.013-1.647 2.33-2.887 3.95-3.72 1.613-0.833 3.32-1.25 5.12-1.25z" fill="black" fill-rule="nonzero" stroke="none" stroke-width="1" stroke-linecap="butt" stroke-linejoin="miter" stroke-miterlimit="10" stroke-dasharray="" stroke-dashoffset="0" font-family="none" font-weight="none" font-size="none" text-anchor="none" style="mix-blend-mode: normal" opacity="1"/><path transform="translate(0,45.1)" d="M13.8-8.85v0c-0.033 1.567-0.19 3.05-0.47 4.45-0.287 1.4-0.83 2.79-1.63 4.17-0.8 1.387-1.973 2.84-3.52 4.36-1.553 1.513-3.63 3.17-6.23 4.97v0l-1.7-2.15c1.567-1.533 2.793-3.023 3.68-4.47 0.88-1.453 1.513-3.073 1.9-4.86 0.38-1.78 0.603-3.903 0.67-6.37v0c0.167-4.567 0.183-8.683 0.05-12.35-0.133-3.667-0.233-6.55-0.3-8.65v0l-4.8-1.3 0.5-1.95c0.767 0.033 1.527 0.067 2.28 0.1 0.747 0.033 1.587 0.057 2.52 0.07 0.933 0.02 2.083 0.03 3.45 0.03v0c1.967 0 3.493-0.027 4.58-0.08 1.08-0.047 2.053-0.087 2.92-0.12v0l0.6 1.95-4.45 1.3c0 1.833 0.01 3.757 0.03 5.77 0.013 2.02 0.02 4.247 0.02 6.68 0 2.433-0.033 5.25-0.1 8.45zM33.5-21.8v0c1.767 0 3.3 0.54 4.6 1.62 1.3 1.087 1.95 2.73 1.95 4.93v0c0 1.433-0.023 2.633-0.07 3.6-0.053 0.967-0.103 1.823-0.15 2.57-0.053 0.753-0.08 1.53-0.08 2.33v0c0 0.933 0.057 1.59 0.17 1.97 0.12 0.387 0.447 0.58 0.98 0.58v0c0.467 0 1.167-0.217 2.1-0.65v0l0.9 2.2c-1.2 0.833-2.35 1.523-3.45 2.07-1.1 0.553-2.267 0.83-3.5 0.83v0c-1.033 0-1.933-0.41-2.7-1.23-0.767-0.813-1.15-2.103-1.15-3.87v0c0-1.633 0.077-3.243 0.23-4.83 0.147-1.58 0.22-2.987 0.22-4.22v0c0-1.033-0.15-1.867-0.45-2.5-0.3-0.633-0.8-1.067-1.5-1.3v0c-1.533 0.067-3 0.35-4.4 0.85-1.4 0.5-2.833 1.133-4.3 1.9v0l-1.3-2.15c1.9-1.4 3.827-2.533 5.78-3.4 1.947-0.867 3.987-1.3 6.12-1.3zM37.05-13.95v0l-3 4.15c-0.733 0.167-1.383 0.333-1.95 0.5-0.567 0.167-1.083 0.3-1.55 0.4v0c-1.133 0.233-1.917 0.523-2.35 0.87-0.433 0.353-0.65 0.963-0.65 1.83v0c0 0.7 0.183 1.25 0.55 1.65 0.367 0.4 0.867 0.6 1.5 0.6v0c0.767 0 1.743-0.36 2.93-1.08 1.18-0.713 2.187-1.62 3.02-2.72v0l0.95 2.05c-0.533 0.667-1.29 1.483-2.27 2.45-0.987 0.967-2.163 1.823-3.53 2.57-1.367 0.753-2.867 1.13-4.5 1.13v0c-0.833 0-1.64-0.227-2.42-0.68-0.787-0.447-1.44-1.12-1.96-2.02-0.513-0.9-0.77-2.017-0.77-3.35v0c0-1.4 0.427-2.493 1.28-3.28 0.847-0.78 2.003-1.387 3.47-1.82 1.467-0.433 3.083-0.8 4.85-1.1v0c1.2-0.2 2.317-0.46 3.35-0.78 1.033-0.313 2.05-0.77 3.05-1.37zM64.4-21.75v0c2.033 0 3.66 0.717 4.88 2.15 1.213 1.433 1.887 3.333 2.02 5.7v0c0.067 0.6 0.083 1.523 0.05 2.77-0.033 1.253-0.057 2.62-0.07 4.1-0.02 1.487-0.03 2.863-0.03 4.13v0l3.7 1.05-0.7 1.85c-0.9-0.067-1.91-0.11-3.03-0.13-1.113-0.013-2.27-0.02-3.47-0.02v0c-1.133 0-2.217 0.017-3.25 0.05-1.033 0.033-1.983 0.067-2.85 0.1v0l-0.7-1.85 3.7-1.05c0.033-1.133 0.067-2.077 0.1-2.83 0.033-0.747 0.06-1.497 0.08-2.25 0.013-0.747 0.003-1.653-0.03-2.72v0c-0.033-2.433-0.44-4.093-1.22-4.98-0.787-0.88-1.963-1.32-3.53-1.32v0c-1.467 0.967-2.483 2.157-3.05 3.57-0.567 1.42-0.833 2.73-0.8 3.93v0l-1.85-2.1c0.233-1.933 0.8-3.66 1.7-5.18 0.9-1.513 2.077-2.72 3.53-3.62 1.447-0.9 3.053-1.35 4.82-1.35zM56.2-21.9v0c0 1.1 0 2.007 0 2.72 0 0.72 0 1.43 0 2.13 0 0.7-0.017 1.617-0.05 2.75v0l0.1 11.4 3.65 1.05-0.65 1.85c-1.1-0.067-2.183-0.11-3.25-0.13-1.067-0.013-2.183-0.02-3.35-0.02v0c-1.167 0-2.21 0.017-3.13 0.05-0.913 0.033-1.87 0.067-2.87 0.1v0l-0.8-1.85 3.75-1.05c0.033-1.3 0.067-2.36 0.1-3.18 0.033-0.813 0.057-1.553 0.07-2.22 0.02-0.667 0.03-1.417 0.03-2.25v0c0-1-0.01-1.86-0.03-2.58-0.013-0.713-0.053-1.463-0.12-2.25-0.067-0.78-0.15-1.753-0.25-2.92v0l-3.7-0.6-0.6-2.1c1.667-0.067 3.39-0.16 5.17-0.28 1.787-0.113 3.763-0.32 5.93-0.62zM79.55-21.75v0c2.067 0 3.707 0.717 4.92 2.15 1.22 1.433 1.897 3.333 2.03 5.7v0c0.033 0.6 0.033 1.523 0 2.77-0.033 1.253-0.057 2.62-0.07 4.1-0.02 1.487-0.013 2.863 0.02 4.13v0l3.7 1.05-0.75 1.85c-0.9-0.067-1.907-0.11-3.02-0.13-1.12-0.013-2.28-0.02-3.48-0.02v0c-1.133 0-2.207 0.017-3.22 0.05-1.02 0.033-1.963 0.067-2.83 0.1v0l-0.7-1.85 3.65-1.05c0.067-1.133 0.11-2.077 0.13-2.83 0.013-0.747 0.027-1.497 0.04-2.25 0.02-0.747 0.03-1.653 0.03-2.72v0c-0.033-2.433-0.44-4.093-1.22-4.98-0.787-0.88-1.98-1.32-3.58-1.32v0c-1.433 0.967-2.443 2.157-3.03 3.57-0.58 1.42-0.87 2.73-0.87 3.93v0l-1.8-2.1c0.233-1.933 0.807-3.66 1.72-5.18 0.92-1.513 2.097-2.72 3.53-3.62 1.433-0.9 3.033-1.35 4.8-1.35z" fill="black" fill-rule="nonzero" stroke="none" stroke-width="1" stroke-linecap="butt" stroke-linejoin="miter" stroke-miterlimit="10" stroke-dasharray="" stroke-dashoffset="0" font-family="none" font-weight="none" font-size="none" text-anchor="none" style="mix-blend-mode: normal" opacity="1"/></g></svg></g></svg></g></svg></g></svg></g><g transform="matrix(1,0,0,1,0,63.12140129337314)"><svg viewBox="0 0 142.44146341463417 74.75719741325369" height="74.75719741325369" width="142.44146341463417"><g><svg xmlns="http://www.w3.org/2000/svg" xmlns:xlink="http://www.w3.org/1999/xlink" version="1.1" x="0" y="0" viewBox="5 26.382 90.001 47.235" enable-background="new 0 0 100 100" xml:space="preserve" height="74.75719741325369" width="142.44146341463417" class="icon-icon-0" data-fill-palette-color="accent" id="SvgjsSvg4340"><g fill="black"><path fill="black" d="M49.999 28.675A0.682 0.682 0 1 1 49.999 27.314 0.681 0.681 0 0 0 49.999 28.675"/><path fill="black" d="M54.303 70.682H45.696A0.68 0.68 0 0 0 45.016 71.362V71.363A0.68 0.68 0 0 1 45.696 70.684H54.303C54.678 70.684 54.98 70.989 54.983 71.363V71.362A0.68 0.68 0 0 0 54.303 70.682"/><path d="M86.627 69.107C86.736 68.881 86.803 68.629 86.803 68.361V28.107C86.803 27.154 86.032 26.382 85.078 26.382H14.919C13.966 26.382 13.194 27.153 13.194 28.107V68.361C13.194 68.632 13.259 68.882 13.37 69.107H5V71.892C5 72.841 5.773 73.617 6.727 73.617H93.273C94.226 73.617 95.001 72.844 95.001 71.892V69.107zM49.999 27.314A0.68 0.68 0 1 1 49.999 28.672 0.68 0.68 0 0 1 50 27.314M16.143 29.709H83.855V66.277H16.143zM54.982 71.363A0.68 0.68 0 0 1 54.302 72.046H45.695A0.68 0.68 0 0 1 45.015 71.363V71.361A0.68 0.68 0 0 1 45.695 70.681H54.302A0.68 0.68 0 0 1 54.982 71.361z" fill="black"/><polygon points="31.736,50.861 44.194,56.648 44.194,53.898 34.772,49.771 34.772,49.719 44.194,45.592 44.194,42.84    31.736,48.628  " fill="black"/><polygon points="46.119,57.688 48.74,57.688 54.295,38.87 51.673,38.87  " fill="black"/><polygon points="55.801,45.592 65.432,49.719 65.432,49.771 55.801,53.898 55.801,56.648 68.26,50.939 68.26,48.551 55.801,42.84     " fill="black"/></g></svg></g></svg></g></svg></g><defs><mask/></defs></svg><rect width="395.52" height="186.87214239163356" fill="black" stroke="none" visibility="hidden"/></g></mask></svg><rect width="395.52" height="186.87214239163356" fill="black" stroke="none" visibility="hidden"/></g></mask><linearGradient x1="0" x2="1" y1="0.548" y2="0.55" id="60ae216f-f1d2-4501-a441-5717bafa2cfb"><stop stop-color="#ff6cab" offset="0"/><stop stop-color="#7366ff" offset="1"/></linearGradient><rect width="395.52" height="186.87214239163356" fill="url(#60ae216f-f1d2-4501-a441-5717bafa2cfb)" mask="url(#5fac5313-747b-49bf-b6af-c52b54f8b036)" data-fill-palette-color="accent"/></svg><rect width="395.52" height="186.87214239163356" fill="none" stroke="none" visibility="hidden"/></g></svg></g></svg>